# AST/ASF file generated using VICON BodyLanguage
# -----------------------------------------------
:version 1.10
:name VICON
:units
  mass 1.0
  length 0.45
  angle deg
:documentation
   .ast/.asf automatically generated from VICON data using
   VICON BodyBuilder and BodyLanguage model FoxedUp or BRILLIANT.MOD
:root
   order TX TY TZ RX RY RZ
   axis XYZ
   position 0 0 0  
   orientation 0 0 0 
:bonedata
  begin
     id 1 
     name lhipjoint
     direction 0.710188 -0.616876 0.339259 
     length 2.5669 
     axis 0 0 0  XYZ
  end
  begin
     id 2 
     name lfemur
     direction 0.34202 -0.939693 0  
     length 7.12796  
     axis 0 0 20  XYZ
    dof rx ry rz
    limits (-160.0 20.0)
           (-70.0 70.0)
           (-60.0 70.0)
  end
  begin
     id 3 
     name ltibia
     direction 0.34202 -0.939693 0   
     length 7.58108   
     axis 0 0 20   XYZ
    dof rx
    limits (-10.0 170.0)
  end
  begin
     id 4 
     name lfoot
     direction 0.0669471 -0.183936 0.980656   
     length 2.17365   
     axis -90 7.62852e-016 20   XYZ
    dof rx rz
    limits (-45.0 90.0)
           (-70.0 20.0)
  end
  begin
     id 5 
     name ltoes
     direction 1.53508e-011 -4.21705e-011 1   
     length 1.09427   
     axis -90 7.62852e-016 20   XYZ
    dof rx
    limits (-90.0 20.0)
  end
  begin
     id 6 
     name rhipjoint
     direction -0.700191 -0.625589 0.34405   
     length 2.53115  
     axis 0 0 0  XYZ 
  end
  begin
     id 7 
     name rfemur
     direction -0.34202 -0.939693 0   
     length 7.33006   
     axis 0 0 -20   XYZ
    dof rx ry rz
    limits (-160.0 20.0)
           (-70.0 70.0)
           (-70.0 60.0)
  end
  begin
     id 8 
     name rtibia
     direction -0.34202 -0.939693 0   
     length 7.64926   
     axis 0 0 -20   XYZ
    dof rx
    limits (-10.0 170.0)
 end
 begin
     id 9 
     name rfoot
     direction -0.0688927 -0.189281 0.979503   
     length 2.20493  
     axis -90 -7.62852e-016 -20   XYZ
    dof rx rz
    limits (-45.0 90.0)
           (-20.0 70.0)
  end
  begin
     id 10 
     name rtoes
     direction -1.53567e-011 -4.21933e-011 1   
     length 1.10919   
     axis -90 -7.62852e-016 -20   XYZ
    dof rx
    limits (-90.0 20.0)
  end
  begin
     id 11 
     name lowerback
     direction -0.0167868 0.989873 -0.140959   
     length 2.14596   
     axis 0 0 0   XYZ
    dof rx ry rz
    limits (-20.0 45.0)
           (-30.0 30.0)
           (-30.0 30.0)
  end
  begin
     id 12 
     name upperback
     direction 0.0129109 0.998033 0.0613525   
     length 2.10457   
     axis 0 0 0   XYZ
    dof rx ry rz
    limits (-20.0 45.0)
           (-30.0 30.0)
           (-30.0 30.0)
  end
  begin
     id 13 
     name thorax
     direction 0.0177047 0.991119 0.131797   
     length 2.17652   
     axis 0 0 0   XYZ
    dof rx ry rz
    limits (-20.0 45.0)
           (-30.0 30.0)
           (-30.0 30.0)
  end
  begin
     id 14 
     name lowerneck
     direction -0.0336893 0.997548 0.0613464   
     length 1.8912   
     axis 0 0 0   XYZ
    dof rx ry rz
    limits (-20.0 45.0)
           (-30.0 30.0)
           (-30.0 30.0)
  end
  begin
     id 15 
     name upperneck
     direction 0.0435909 0.997179 -0.0611028   
     length 1.8829   
     axis 0 0 0   XYZ
    dof rx ry rz
    limits (-20.0 45.0)
           (-30.0 30.0)
           (-30.0 30.0)
  end
  begin
     id 16
     name head
     direction 0.0175076 0.999444 -0.0283782  
     length 1.93197  
     axis 0 0 0   XYZ
    dof rx ry rz
    limits (-20.0 45.0)
           (-30.0 30.0)
           (-30.0 30.0)
  end
  begin
     id 17 
     name lclavicle
     direction 0.919164 0.389875 0.0559876  
     length 3.60004  
     axis 0 0 0   XYZ
    dof ry rz
    limits (-20.0 10.0)
           (0.0 20.0)
  end
  begin
     id 18 
     name lhumerus
     direction 1 -4.48958e-011 6.89191e-027   
     length 5.43301   
     axis 180 -30 -90   XYZ
    dof rx ry rz
    limits (-60.0 90.0)
           (-90.0 90.0)
           (-90.0 90.0)
  end
  begin
     id 19
     name lradius
     direction 1 -4.4897e-011 3.24727e-027   
     length 3.15936   
     axis 180 -30 -90   XYZ
    dof rx
    limits (-10.0 170.0)
  end
  begin
     id 20
     name lwrist
     direction 1 -4.4897e-011 9.00228e-027   
     length 1.57968   
     axis -6.29373e-015 90 90   XYZ
    dof ry
    limits (-180.0 0.0)
 end
  begin
     id 21 
     name lhand
     direction 1 -4.48968e-011 1.80042e-026   
     length 0.712827   
     axis -1.14882e-014 90 90   XYZ
    dof rx rz
    limits (-90.0 90.0)
           (-45.0 45.0)
  end
  begin
     id 22 
     name lfingers
     direction 1 -4.49019e-011 3.60267e-026   
     length 0.574699   
     axis -2.29769e-014 90 90   XYZ
    dof rx
    limits (0.0 90.0)
  end
  begin
     id 23
     name lthumb
     direction 0.707107 -6.3498e-011 0.707107   
     length 0.825157   
     axis -90 45 5.37419e-014   XYZ
    dof rx rz
    limits (-45.0 45.0)
           (-45.0 45.0)
  end
  begin
     id 24 
     name rclavicle
     direction -0.890334 0.455305 -0.00132111   
     length 3.51494  
     axis 0 0 0   XYZ 
    dof ry rz
    limits (-10.0 20.0)
           (-20.0 0.0)
  end
  begin
     id 25 
     name rhumerus
     direction -1 -4.48967e-011 5.07175e-028  
     length 5.34194   
     axis 180 30 90   XYZ
    dof rx ry rz
    limits (-90.0 60.0)
           (-90.0 90.0)
           (-90.0 90.0)
  end
  begin
     id 26 
     name rradius
     direction -1 -4.48955e-011 3.30467e-027   
     length 3.19351   
     axis 180 30 90   XYZ
    dof rx
    limits (-10.0 170.0)
  end
  begin
     id 27 
     name rwrist
     direction -1 -4.48968e-011 9.00208e-027   
     length 1.59676   
     axis -6.29373e-015 -90 -90   XYZ
    dof ry
    limits (-180.0 0.0)
  end
  begin
     id 28
     name rhand
     direction -1 -4.49e-011 1.80099e-026   
     length 0.743862   
     axis -1.14882e-014 -90 -90   XYZ
    dof rx rz
    limits (-90.0 90.0)
           (-45.0 45.0)
  end
  begin
     id 29
     name rfingers
     direction -1 -4.49009e-011 3.6023e-026   
     length 0.599721   
     axis -2.29769e-014 -90 -90   XYZ
    dof rx
    limits (0.0 90.0)
  end
  begin
     id 30
     name rthumb
     direction -0.707107 -6.35025e-011 0.707107   
     length 0.861083   
     axis -90 -45 -5.37419e-014   XYZ
    dof rx rz
    limits (-45.0 45.0)
           (-45.0 45.0)
  end
:hierarchy
  begin
    root lhipjoint rhipjoint lowerback
    lhipjoint lfemur
    lfemur ltibia
    ltibia lfoot
    lfoot ltoes
    rhipjoint rfemur
    rfemur rtibia
    rtibia rfoot
    rfoot rtoes
    lowerback upperback
    upperback thorax
    thorax lowerneck lclavicle rclavicle
    lowerneck upperneck
    upperneck head
    lclavicle lhumerus
    lhumerus lradius
    lradius lwrist
    lwrist lhand lthumb
    lhand lfingers
    rclavicle rhumerus
    rhumerus rradius
    rradius rwrist
    rwrist rhand rthumb
    rhand rfingers
  end

#!OML:ASF H:\Martial Arts Walks\Project 1\Capture day 1\Session 1\male.ASF
:FULLY-SPECIFIED
:DEGREES
688
root -3.72647 13.9862 10.2306 -0.474445 21.7781 9.43564
lowerback 14.8877 0.180465 -16.586
upperback -0.139632 -2.70961 -0.888292
thorax -7.88036 -0.658323 8.96959
lowerneck 0.175415 -8.19385 -8.64553
upperneck 6.46319 -11.348 8.51575
head 2.87178 -5.64401 3.58681
rclavicle 4.1428e-014 -4.29375e-014
rhumerus -37.1083 6.06204 -68.4186
rradius 52.4627
rwrist 9.13212
rhand -9.70692 -47.2235
rfingers 7.12502
rthumb 16.2659 -76.5612
lclavicle 4.1428e-014 -4.29375e-014
lhumerus -19.5313 -12.5416 84.0046
lradius 35.2347
lwrist -8.23096
lhand -16.8251 20.9973
lfingers 7.12502
lthumb 9.40409 50.7675
rfemur -55.6116 -21.4775 5.61147
rtibia 68.3206
rfoot -5.19892 12.2177
rtoes 6.0324
lfemur 14.4192 5.12039 -10.8383
ltibia 40.2765
lfoot -28.3741 30.8848
ltoes -14.6239
689
root -3.74002 13.998 10.2714 -0.127056 21.8136 9.52634
lowerback 14.7891 0.140291 -16.5989
upperback -0.200902 -2.75357 -0.905904
thorax -7.88222 -0.67581 8.96219
lowerneck 0.295329 -8.24835 -8.69056
upperneck 6.2106 -11.4139 8.51057
head 2.78497 -5.68238 3.59889
rclavicle 1.80459e-015 -2.24627e-014
rhumerus -36.9365 6.14492 -68.3255
rradius 53.3013
rwrist 8.67639
rhand -9.13595 -47.7
rfingers 7.12502
rthumb 16.8156 -76.9919
lclavicle 1.80459e-015 -2.24627e-014
lhumerus -19.6402 -12.9514 83.9236
lradius 35.3714
lwrist -9.20301
lhand -15.6003 20.3187
lfingers 7.12502
lthumb 10.5857 50.0321
rfemur -55.8815 -21.6628 5.72027
rtibia 68.4807
rfoot -5.42414 12.2164
rtoes 6.51737
lfemur 14.5787 5.2298 -10.7424
ltibia 39.4721
lfoot -28.1613 30.5699
ltoes -15.117
690
root -3.74939 14.0063 10.3105 0.256389 21.8567 9.79165
lowerback 14.6688 0.104586 -16.7658
upperback -0.235533 -2.81391 -0.967126
thorax -7.83361 -0.701707 8.9931
lowerneck 0.375078 -8.26885 -8.70073
upperneck 5.98186 -11.4334 8.50618
head 2.70585 -5.69566 3.60628
rclavicle 2.13103e-014 6.4605e-016
rhumerus -36.5711 6.30237 -68.2274
rradius 53.8884
rwrist 8.30567
rhand -8.87033 -46.9953
rfingers 7.12502
rthumb 17.0713 -76.2653
lclavicle 2.13103e-014 6.4605e-016
lhumerus -19.6565 -13.3509 83.8329
lradius 35.4048
lwrist -9.89939
lhand -14.5549 19.3198
lfingers 7.12502
lthumb 11.594 48.9791
rfemur -56.166 -21.9246 5.63137
rtibia 68.6421
rfoot -5.60761 12.3236
rtoes 6.8411
lfemur 14.7228 5.36278 -10.8414
ltibia 38.7458
lfoot -27.8997 30.3424
ltoes -15.6735
691
root -3.75804 14.017 10.3479 0.576565 21.8477 9.78879
lowerback 14.5205 0.073173 -16.664
upperback -0.282608 -2.8136 -0.966144
thorax -7.80643 -0.705739 8.93134
lowerneck 0.325627 -8.32691 -8.68072
upperneck 5.90624 -11.497 8.40544
head 2.69011 -5.7283 3.56906
rclavicle 2.40716e-014 2.08724e-015
rhumerus -36.2877 6.46559 -68.1492
rradius 54.4911
rwrist 7.91926
rhand -8.4085 -47.3118
rfingers 7.12502
rthumb 17.5157 -76.5427
lclavicle 2.40716e-014 2.08724e-015
lhumerus -19.6599 -13.69 83.7892
lradius 35.5094
lwrist -10.2098
lhand -13.8103 18.6968
lfingers 7.12502
lthumb 12.3121 48.3143
rfemur -56.4633 -22.082 5.83495
rtibia 68.7558
rfoot -5.7746 12.4018
rtoes 7.16943
lfemur 14.8075 5.55223 -10.6615
ltibia 38.1017
lfoot -27.7444 30.0327
ltoes -16.0784
692
root -3.76257 14.0262 10.3855 0.892417 21.9114 9.95573
lowerback 14.4032 0.0241594 -16.6746
upperback -0.340175 -2.86736 -1.02111
thorax -7.79274 -0.730396 8.88114
lowerneck 0.422911 -8.34813 -8.70827
upperneck 5.81523 -11.5249 8.37765
head 2.64958 -5.74612 3.56987
rclavicle -4.59814e-014 -4.27387e-015
rhumerus -36.1503 6.63689 -68.0942
rradius 55.1156
rwrist 7.70384
rhand -8.15986 -46.7515
rfingers 7.12502
rthumb 17.755 -75.9609
lclavicle -4.59814e-014 -4.27387e-015
lhumerus -19.8014 -13.9812 83.7718
lradius 35.7247
lwrist -10.1897
lhand -13.2371 18.5703
lfingers 7.12502
lthumb 12.8646 48.1539
rfemur -56.6632 -22.3755 5.81489
rtibia 68.8721
rfoot -5.92383 12.5657
rtoes 7.85
lfemur 14.9353 5.6645 -10.6784
ltibia 37.4811
lfoot -27.5452 29.8045
ltoes -16.4552
693
root -3.76623 14.0365 10.4204 1.14992 21.8947 9.9628
lowerback 14.2593 -0.00407147 -16.5703
upperback -0.383103 -2.86344 -1.02257
thorax -7.76445 -0.733201 8.81471
lowerneck 0.514704 -8.37729 -8.74748
upperneck 5.72579 -11.564 8.36545
head 2.61299 -5.76924 3.57625
rclavicle 1.04082e-014 2.4202e-014
rhumerus -35.9208 6.79768 -68.0134
rradius 55.5709
rwrist 7.71329
rhand -8.12848 -46.3363
rfingers 7.12502
rthumb 17.7852 -75.543
lclavicle 1.04082e-014 2.4202e-014
lhumerus -19.8632 -14.3023 83.8033
lradius 35.909
lwrist -9.77596
lhand -12.9458 18.9742
lfingers 7.12502
lthumb 13.1454 48.5399
rfemur -56.8907 -22.5602 5.98854
rtibia 68.9494
rfoot -6.0574 12.6709
rtoes 8.33818
lfemur 15.0466 5.82352 -10.5556
ltibia 36.9187
lfoot -27.3936 29.5721
ltoes -16.6275
694
root -3.76714 14.0453 10.4523 1.36716 21.854 9.98007
lowerback 14.1378 -0.0216563 -16.4411
upperback -0.379983 -2.8417 -1.03685
thorax -7.70315 -0.734088 8.71681
lowerneck 0.416648 -8.44002 -8.74094
upperneck 5.74922 -11.6366 8.27518
head 2.63669 -5.80458 3.53947
rclavicle -3.05321e-014 -6.16232e-015
rhumerus -35.6417 6.96317 -67.9371
rradius 55.9936
rwrist 7.79883
rhand -7.91314 -46.2805
rfingers 7.12502
rthumb 17.9924 -75.4682
lclavicle -3.05321e-014 -6.16232e-015
lhumerus -19.8638 -14.6583 83.8275
lradius 36.1124
lwrist -9.10793
lhand -13.0069 19.5294
lfingers 7.12502
lthumb 13.0865 49.0988
rfemur -57.078 -22.7315 6.13192
rtibia 69.022
rfoot -6.19264 12.787
rtoes 8.68759
lfemur 15.2028 5.95707 -10.4813
ltibia 36.378
lfoot -27.2513 29.3681
ltoes -16.7404
695
root -3.76799 14.0531 10.4809 1.55844 21.7941 9.93133
lowerback 14.0149 -0.0470558 -16.2711
upperback -0.417708 -2.82702 -1.03242
thorax -7.68575 -0.733567 8.61929
lowerneck 0.477397 -8.44677 -8.79006
upperneck 5.73477 -11.6485 8.27803
head 2.62657 -5.81288 3.55026
rclavicle 6.33875e-014 1.57537e-014
rhumerus -35.5058 7.17627 -67.8807
rradius 56.4289
rwrist 8.03744
rhand -7.75399 -46.0932
rfingers 7.12502
rthumb 18.1455 -75.2668
lclavicle 6.33875e-014 1.57537e-014
lhumerus -19.9283 -14.9195 83.8788
lradius 36.2931
lwrist -8.41715
lhand -13.4924 20.1828
lfingers 7.12502
lthumb 12.6185 49.7817
rfemur -57.2895 -22.8607 6.35356
rtibia 69.092
rfoot -6.31171 12.8634
rtoes 9.01405
lfemur 15.3419 6.04494 -10.3857
ltibia 35.8629
lfoot -27.1208 29.2243
ltoes -16.7134
696
root -3.76878 14.0601 10.5081 1.71781 21.6834 9.86143
lowerback 13.9138 -0.0536262 -16.109
upperback -0.473121 -2.79549 -1.02852
thorax -7.70476 -0.720518 8.52398
lowerneck 0.592792 -8.46473 -8.76732
upperneck 5.72112 -11.676 8.21336
head 2.60104 -5.83015 3.53197
rclavicle -2.72521e-014 2.3556e-014
rhumerus -35.2082 7.45621 -67.8678
rradius 56.5505
rwrist 8.32542
rhand -7.24267 -46.2656
rfingers 7.12502
rthumb 18.6374 -75.3927
lclavicle -2.72521e-014 2.3556e-014
lhumerus -20.0984 -15.1089 83.9277
lradius 36.5421
lwrist -7.80191
lhand -13.9562 20.833
lfingers 7.12502
lthumb 12.1713 50.4589
rfemur -57.4859 -22.9236 6.58939
rtibia 69.1719
rfoot -6.44474 12.9243
rtoes 9.43232
lfemur 15.4992 6.11593 -10.3045
ltibia 35.3685
lfoot -26.9203 29.198
ltoes -16.9311
697
root -3.76537 14.0629 10.5349 1.891 21.6124 10.0228
lowerback 13.8825 -0.0455123 -16.1289
upperback -0.480031 -2.7869 -1.08462
thorax -7.69927 -0.716789 8.46949
lowerneck 0.511301 -8.49585 -8.74923
upperneck 5.80543 -11.7147 8.18439
head 2.64004 -5.84725 3.51294
rclavicle 6.22382e-014 1.36167e-014
rhumerus -34.9479 7.73663 -67.853
rradius 56.6987
rwrist 8.52642
rhand -7.15321 -46.4249
rfingers 7.12502
rthumb 18.7235 -75.5438
lclavicle 6.22382e-014 1.36167e-014
lhumerus -20.1627 -15.2209 83.9672
lradius 36.7206
lwrist -7.29987
lhand -14.3398 21.5017
lfingers 7.12502
lthumb 11.8015 51.1492
rfemur -57.626 -23.1212 6.54257
rtibia 69.2857
rfoot -6.58384 13.0727
rtoes 9.9119
lfemur 15.722 6.06491 -10.524
ltibia 34.8987
lfoot -26.7625 29.2752
ltoes -17.037
